<?xml version="1.0" encoding="utf-8"?>
<!-- Generator: Adobe Illustrator 22.1.0, SVG Export Plug-In . SVG Version: 6.00 Build 0)  -->
<svg version="1.1" id="Layer_1" xmlns="http://www.w3.org/2000/svg" xmlns:xlink="http://www.w3.org/1999/xlink" x="0px" y="0px"
	 viewBox="0 0 366 85" style="enable-background:new 0 0 366 85;" xml:space="preserve">
<style type="text/css">
	.st0{fill:#30D6B6;}
	.st1{fill:#333333;}
</style>
<g>
	<circle class="st0" cx="42.5" cy="43.5" r="38.5"/>
</g>
<g>
	<circle class="st0" cx="230.5" cy="43.5" r="38.5"/>
</g>
<g>
	<circle class="st0" cx="136.5" cy="43.5" r="38.5"/>
</g>
<g>
	<circle class="st0" cx="324.5" cy="43.5" r="38.5"/>
</g>
<g>
	<path class="st1" d="M20.6,68.5L13,40c-0.9-3.5-0.3-6.8,1.8-9.8c2.2-3,5.5-5.1,9.9-6.3c5.2-1.4,9.8-0.6,13.6,2.3
		c1.2-2.5,2.7-4.4,4.4-5.8c1.7-1.4,4.1-2.5,7-3.2c4.6-1.2,8.4-1.1,11.5,0.5c3,1.6,5.1,4.5,6.3,8.7L74.8,54L59.6,58l-6.9-25.7
		c-0.3-1.3-0.7-2.1-1.1-2.4c-0.4-0.3-1-0.4-1.8-0.2c-1.5,0.4-2,1.6-1.5,3.6l6.9,25.9l-15.2,4.1l-6.9-25.7c-0.3-1.3-0.7-2.1-1.1-2.4
		c-0.4-0.3-1-0.4-1.8-0.2c-1.5,0.4-2,1.7-1.4,3.8l6.9,25.7L20.6,68.5z"/>
</g>
<g>
	<path class="st1" d="M138.8,16.8l13.7,51l-17.9,4.8l-13.7-51L138.8,16.8z"/>
</g>
<g>
	<path class="st1" d="M327.8,16.8l13.7,51l-17.9,4.8l-13.7-51L327.8,16.8z"/>
</g>
<g>
	<path class="st1" d="M225.1,35.3l7.7,28.9l-15.2,4.1l-10.6-39.5l19.5-5.2c5.9-1.6,10.9-1.7,14.7-0.3c4.3,1.6,7,4.3,8.1,8.2
		c1.1,4-0.3,8-4.1,11.9l13.1,13.9l-16,4.3l-10.8-10.7L229,40.6l1.2-0.3c3.2-0.9,4.5-2.3,3.9-4.5c-0.5-1.9-2.6-2.3-6.3-1.3
		L225.1,35.3z"/>
</g>
<g>
</g>
<g>
</g>
<g>
</g>
<g>
</g>
<g>
</g>
<g>
</g>
<g>
</g>
<g>
</g>
<g>
</g>
<g>
</g>
<g>
</g>
<g>
</g>
<g>
</g>
<g>
</g>
<g>
</g>
<g>
</g>
</svg>
